HIERARCHY
ROOT Hips
{
  OFFSET 18.1304 107.864 -338.589
  CHANNELS 6 Xposition Yposition Zposition Zrotation Xrotation Yrotation
  JOINT ToSpine
  {
    OFFSET -2.69724 7.43032 -0.144315
    CHANNELS 3 Zrotation Xrotation Yrotation
    JOINT Spine
    {
      OFFSET -0.0310711 10.7595 1.96963
      CHANNELS 3 Zrotation Xrotation Yrotation
      JOINT Spine1
      {
        OFFSET 19.9056 3.91189 0.764692
        CHANNELS 3 Zrotation Xrotation Yrotation
        JOINT Neck
        {
          OFFSET 25.9749 7.03908 -0.130764
          CHANNELS 3 Zrotation Xrotation Yrotation
          JOINT Head
          {
            OFFSET 9.52751 0.295786 -0.907742
            CHANNELS 3 Zrotation Xrotation Yrotation
            End Site
            {
              OFFSET 16.4037 0.713936 2.7358
            }
          }
        }
        JOINT LeftShoulder
        {
          OFFSET 17.7449 4.33886 11.7777
          CHANNELS 3 Zrotation Xrotation Yrotation
          JOINT LeftArm
          {
            OFFSET 0.911315 1.27913 9.80584
            CHANNELS 3 Zrotation Xrotation Yrotation
            JOINT LeftForeArm
            {
              OFFSET 28.6126 1.18197 -3.53199
              CHANNELS 3 Zrotation Xrotation Yrotation
              JOINT LeftHand
              {
                OFFSET 27.5088 0.0218783 0.327423
                CHANNELS 3 Zrotation Xrotation Yrotation
                End Site
                {
                  OFFSET 18.6038 -0.000155887 0.382096
                }
              }
            }
          }
        }
        JOINT RightShoulder
        {
          OFFSET 17.1009 2.89543 -12.2328
          CHANNELS 3 Zrotation Xrotation Yrotation
          JOINT RightArm
          {
            OFFSET 1.4228 0.178766 -10.211
            CHANNELS 3 Zrotation Xrotation Yrotation
            JOINT RightForeArm
            {
              OFFSET 28.733 1.87905 2.64907
              CHANNELS 3 Zrotation Xrotation Yrotation
              JOINT RightHand
              {
                OFFSET 27.4588 0.290562 -0.101845
                CHANNELS 3 Zrotation Xrotation Yrotation
                End Site
                {
                  OFFSET 17.8396 -0.255518 -0.000602873
                }
              }
            }
          }
        }
      }
    }
  }
  JOINT LeftUpLeg
  {
    OFFSET -5.61296 -2.22332 -10.2353
    CHANNELS 3 Zrotation Xrotation Yrotation
    JOINT LeftLeg
    {
      OFFSET 2.56703 -44.7417 -7.93097
      CHANNELS 3 Zrotation Xrotation Yrotation
      JOINT LeftFoot
      {
        OFFSET 3.16933 -46.5642 -3.96578
        CHANNELS 3 Zrotation Xrotation Yrotation
        JOINT LeftToeBase
        {
          OFFSET 0.346054 -6.02161 12.8035
          CHANNELS 3 Zrotation Xrotation Yrotation
          End Site
          {
            OFFSET 0.134235 -1.35082 5.13018
          }
        }
      }
    }
  }
  JOINT RightUpLeg
  {
    OFFSET -5.7928 -1.72406 10.6446
    CHANNELS 3 Zrotation Xrotation Yrotation
    JOINT RightLeg
    {
      OFFSET -2.57161 -44.7178 -7.85259
      CHANNELS 3 Zrotation Xrotation Yrotation
      JOINT RightFoot
      {
        OFFSET -3.10148 -46.5936 -4.03391
        CHANNELS 3 Zrotation Xrotation Yrotation
        JOINT RightToeBase
        {
          OFFSET -0.0828122 -6.13587 12.8035
          CHANNELS 3 Zrotation Xrotation Yrotation
          End Site
          {
            OFFSET -0.131328 -1.35082 5.13018
          }
        }
      }
    }
  }
}
MOTION
Frames:	17
Frame Time:	0.0333333
12.7088 103.389 -14.4284 64.2309 -65.4349 -23.9382 -70.1915 0 88.8779 88.2137 73.3426 -9.22757 1.96333 20.9256 5.80691 -133.247 12.9809 179.331 -144.755 46.6427 163.448 3.17119 -0.479438 -35.0161 -92.9029 45.2627 -97.3655 -3.22251 42.6343 -7.80921 3.15821 -0.0849138 -1.37799 0.62616 -2.09561 43.2863 -89.5652 -38.2183 84.7689 -2.87734 -23.2157 10.2654 8.84131 -0.0211173 -0.660998 -49.6 -9.28851 94.9375 0.200194 28.2658 10.0968 11.392 11.3934 -1.78231 -10.8361 -27.4269 3.31184 -51.7537 -4.21871 76.8383 7.64888 73.2022 -9.2379 -8.46262 3.6144 1.20562 -5.43574 -25.188 -6.97197 
13.3539 103.836 -11.4325 68.0852 -62.1444 -19.171 -70.1915 0 88.8779 88.7359 72.8583 -10.1295 1.68067 20.2802 6.54377 -132.028 13.4223 178.875 -143.849 46.9649 163.222 2.85906 -1.8018 -34.8384 -72.8611 43.3787 -111.854 3.30261 28.745 -16.0638 1.69358 -0.00645863 0.818191 0.815174 -2.7286 43.573 -92.2117 -38.0751 82.7899 -3.9789 -24.4769 8.38743 11.7604 -0.0308724 -0.68193 -51.9801 -9.39637 94.3784 0.859268 28.3742 6.48886 11.2314 10.5615 -1.72685 -11.2779 -28.2332 2.72491 -49.2672 -3.98729 77.1193 7.83305 72.3394 -6.90844 -8.09248 5.23522 1.14743 -6.85223 -27.9201 -12.2466 
13.9981 104.139 -8.82384 70.5515 -58.9285 -16.099 -70.1915 0 88.8779 91.922 72.3537 -13.4803 0.536163 19.8611 6.8542 -131.562 14.0643 178.661 -144.665 48.062 164.213 2.64445 -2.60907 -34.351 -55.1907 37.9869 -123.799 7.39086 15.07 -21.3249 2.26326 -0.0232967 0.272972 0.867659 -2.9159 43.4597 -93.7135 -38.5619 81.1041 -4.51005 -24.7456 7.50721 14.3922 -0.116138 -1.32632 -53.98 -9.7001 93.7556 1.56105 28.2687 3.30347 11.2593 9.96977 -1.71795 -11.8202 -29.1982 2.03478 -46.6277 -3.68426 78.8644 7.22028 70.0291 -3.66943 -5.65324 6.60843 0.711232 -7.31959 -28.3835 -14.5815 
14.5933 104.502 -6.10353 72.2116 -55.5179 -13.4135 -70.1915 0 88.8779 92.1305 71.9238 -13.6563 0.259622 19.426 7.10613 -130.392 14.6418 177.713 -143.953 48.8157 164.446 2.46946 -3.15994 -33.5016 -56.2537 38.5655 -124.9 10.4986 17.1162 -25.9662 -0.0540185 0.0038485 -0.630487 0.862971 -2.86815 43.9143 -94.7337 -38.5773 79.5793 -4.5001 -24.8845 7.40184 15.7662 -0.081905 -0.980199 -55.8025 -9.34331 93.1447 2.27703 28.1937 -0.38719 11.0041 9.38588 -1.65225 -12.2665 -30.1836 1.90505 -45.0251 -2.79339 80.9143 5.89515 65.4385 0.459227 -2.21472 7.39696 0.0573091 -7.50216 -29.3322 -13.502 
15.1356 104.78 -3.32977 73.6036 -52.0004 -11.5714 -70.1915 0 88.8779 90.1628 71.7753 -12.8656 0.777023 18.9847 7.97777 -130.872 14.4002 177.215 -143.121 48.4286 163.876 2.53144 -2.77472 -33.1999 -56.0375 37.7669 -127.467 11.4685 16.7483 -29.1884 0.570522 -0.0170772 -1.66082 0.938477 -3.12558 43.8833 -94.6848 -39.1861 79.4614 -4.30843 -24.9274 7.68554 16.0099 -0.165428 -1.58862 -57.8116 -9.33017 92.5527 2.96436 27.6368 -3.82728 10.7284 8.87084 -1.58645 -12.6147 -30.9516 1.81864 -44.1976 -2.11783 84.0812 4.53597 59.8574 3.00059 0.789137 6.76775 -0.452257 -7.04833 -28.5672 -12.1124 
15.6561 105.022 -0.637792 74.1542 -48.6714 -10.6651 -70.1915 0 88.8779 88.6246 71.7198 -12.3011 0.348795 18.7432 8.67075 -130.433 14.4462 176.869 -142.726 48.5581 164.265 2.45553 -2.97179 -32.6644 -55.9319 37.8657 -128.215 13.0374 16.7964 -33.2482 2.51825 -0.0481104 -0.595165 0.924657 -3.06223 44.1047 -94.4159 -39.5415 78.6187 -3.45851 -25.3652 8.75541 15.2657 -0.190341 -1.84569 -59.4903 -9.1317 92.3354 3.5244 26.7504 -7.33293 10.5256 8.41835 -1.53823 -12.9555 -31.5564 1.47405 -43.6364 -1.2998 88.4131 3.36471 53.562 3.98817 2.95237 7.6981 -0.932202 -7.51235 -30.0734 -11.8722 
16.1797 105.074 1.66755 74.302 -42.8294 -9.55098 -70.1915 0 88.8779 87.6174 70.6321 -12.5059 -0.0663673 17.2457 9.8068 -131.637 14.7097 177.475 -143.553 48.9407 164.57 2.41703 -3.20159 -32.8037 -55.3526 37.0776 -129.48 13.8297 16.4896 -35.7118 3.06004 -0.0553026 -0.467625 0.873106 -2.91651 43.7133 -93.7175 -40.5308 78.144 -2.26988 -25.0314 10.3799 15.0984 -0.197434 -1.9189 -59.772 -9.7667 90.1627 4.4104 26.9234 -11.2646 10.2586 8.06326 -1.48107 -13.2515 -32.3044 1.59924 -43.3251 -2.41721 91.0486 2.48457 47.1039 3.96483 4.61489 6.36584 -1.10136 -6.91824 -28.6161 -11.0343 
16.9578 105.081 4.49562 74.5647 -41.1572 -9.70685 -70.1915 0 88.8779 84.7136 71.3536 -9.38276 0.581765 18.3315 8.65572 -132.019 14.4903 177.634 -143.87 48.7821 164.867 2.38423 -3.33555 -32.7198 -55.4375 36.5931 -129.913 15.2984 17.7602 -37.082 2.88849 -0.0621015 -0.826327 0.717902 -2.34416 44.5651 -92.8511 -40.6086 77.909 -1.39599 -24.4595 11.5559 15.3836 -0.263468 -2.39825 -61.5531 -8.6422 92.5916 4.33169 25.9786 -15.3104 10.4564 7.4036 -1.50653 -13.6501 -32.9586 1.14586 -44.361 -1.9779 96.9035 1.88276 40.5529 3.95636 5.20548 5.33429 -1.08839 -5.48362 -24.5641 -9.32701 
17.753 104.934 6.92648 74.5654 -37.1994 -9.60251 -70.1915 0 88.8779 82.9608 71.0561 -7.36266 0.790609 18.3624 7.59682 -132.755 13.8683 178.302 -143.958 47.9844 164.967 2.39441 -3.21868 -32.4965 -54.5718 35.9449 -131.308 15.2459 17.9591 -36.6604 2.99324 -0.0396011 0.0294871 0.707119 -2.29858 44.7643 -91.6312 -40.9724 78.4521 -0.992966 -23.5333 12.2431 15.2824 -0.30791 -2.75791 -62.1159 -8.66303 92.3462 4.60233 26.0247 -18.7654 10.5949 6.66745 -1.51773 -14.0664 -33.6167 0.662197 -44.9456 -3.79575 99.3132 1.803 35.1925 6.58634 5.3507 4.62091 -1.0302 -4.17859 -20.2852 -7.99528 
18.6095 104.845 9.31975 74.7477 -32.5747 -8.82449 -70.1915 0 88.8779 82.1289 70.7108 -6.07356 1.05347 18.1176 7.30516 -132.746 13.6731 179.441 -143.372 47.4582 165.419 2.44554 -3.12376 -33.0009 -53.5481 35.2596 -132.626 14.9296 18.6278 -34.9691 1.92595 -0.0457524 -1.08403 0.678313 -2.24111 43.9792 -90.7201 -41.8388 78.9369 -0.836845 -21.4149 12.9349 15.4124 -0.461494 -3.91941 -62.7325 -8.44775 91.5071 5.1881 25.9731 -22.5493 10.6493 6.14485 -1.51702 -14.4885 -34.3876 0.382661 -45.8548 -5.72473 98.62 0.356833 31.2344 11.2239 5.81915 2.63766 -0.868056 -3.61412 -18.9469 -2.32519 
19.3307 104.708 11.821 74.5466 -29.0054 -8.40949 -70.1915 0 88.8779 81.3947 70.9319 -4.50961 1.091 18.5293 6.94191 -132.412 13.1059 -179.814 -142.399 46.4349 165.413 2.44965 -3.18928 -33.2848 -51.9734 34.6555 -134.248 13.0348 18.1606 -31.2152 4.68579 -0.0925864 -0.608354 0.669064 -2.20766 44.0267 -86.9822 -41.9093 81.2028 -1.32591 -16.0889 13.8171 15.3939 -0.653761 -5.40545 -63.0893 -8.26461 89.8513 5.80991 26.1047 -24.5327 10.4283 5.55633 -1.46826 -15.0514 -35.3863 -0.00116799 -46.1061 -6.97196 96.4923 -1.7108 29.1802 16.6686 4.95013 0.344862 -0.481076 -3.3208 -17.791 -0.459594 
20.0867 104.407 14.5777 74.2819 -27.183 -8.36061 -70.1915 0 88.8779 80.5086 71.8091 -2.19262 1.45879 19.796 5.96488 -132.557 12.3666 -178.392 -142.911 45.4329 165.772 2.53535 -3.02063 -34.0658 -51.2297 33.7818 -134.135 11.639 18.1148 -27.7462 4.96491 -0.150505 -1.73721 0.582476 -1.90663 44.277 -85.2736 -41.2405 82.4656 -1.43496 -15.3254 13.9614 15.2371 -0.729024 -6.04591 -63.3293 -7.60229 89.1534 6.33674 26.9111 -25.3717 10.1794 4.51691 -1.41003 -15.7865 -36.3784 -0.945355 -46.5253 -6.72286 96.9089 -2.46582 28.1974 18.6023 2.38527 -1.74261 0.0332071 -3.09284 -16.711 0.716695 
20.7749 104.044 17.3207 74.1366 -24.4929 -8.28917 -70.1915 0 88.8779 80.3291 72.3831 -1.2417 1.52829 20.5815 5.39673 -132.503 11.518 -177.125 -142.892 44.1702 165.816 2.5792 -2.92238 -34.4098 -50.1448 32.8637 -133.755 9.11334 15.7549 -23.651 3.46922 -0.0213384 0.792331 0.529905 -1.74646 43.8007 -85.197 -40.9771 83.0613 -1.82273 -16.3728 13.3242 16.0733 -0.817725 -6.38758 -63.3616 -7.60472 86.8581 6.80147 27.977 -25.1045 9.95838 3.75469 -1.36425 -16.6765 -37.4684 -2.15203 -47.2476 -7.09132 96.0052 -2.41584 27.8651 20.789 -1.2737 -3.06544 0.50547 -2.80483 -15.1433 1.12064 
21.291 103.696 20.0421 74.4053 -21.9662 -8.22696 -70.1915 0 88.8779 82.9302 72.9882 -3.21562 1.17557 21.4051 4.73981 -132.461 10.7067 -175.823 -143.015 43.0104 166.062 2.56746 -3.17996 -35.1278 -55.2475 34.643 -128.994 6.04199 18.1914 -19.6852 3.37305 -0.0496333 -0.10707 0.413517 -1.35254 43.7556 -84.9818 -40.5033 83.7267 -2.10917 -18.2099 12.6204 16.9487 -0.841934 -6.22919 -63.8558 -8.64041 80.7676 6.24724 29.6316 -20.839 8.79848 3.22611 -1.18529 -17.2274 -38.5991 -2.1227 -47.9697 -6.44762 99.842 -1.22945 29.5736 14.7345 -4.0794 -4.73222 0.83328 -2.35531 -11.8199 5.62536 
21.8211 103.693 22.2897 74.4215 -19.3549 -6.7025 -70.1915 0 88.8779 88.7833 73.0104 -6.19521 0.82417 21.7824 3.9745 -131.982 10.5003 -174.311 -141.004 41.8141 165.556 2.66794 -3.311 -37.2248 -76.6675 40.4255 -114.794 0.488119 32.7141 -13.5452 6.47978 -0.121637 -0.481608 0.37004 -1.22112 42.735 -83.9063 -40.4426 85.7967 -3.14674 -16.5686 11.9609 17.6907 -1.10376 -7.71053 -64.4613 -10.4232 63.8706 1.15119 33.0934 -4.72719 7.42698 3.3824 -0.981227 -17.8025 -40.3042 -1.30493 -48.5596 -5.68266 98.5351 -0.59075 30.6446 13.575 -5.9592 -5.06554 0.991869 -2.26365 -11.8355 2.64578 
22.4622 103.62 24.0085 73.803 -16.5791 -4.90635 -70.1915 0 88.8779 93.2869 72.8427 -6.86842 0.609721 22.2558 2.74964 -130.747 9.93088 -174.705 -138.826 40.4607 164.665 2.59755 -3.6 -37.2423 -98.5693 43.4527 -99.6549 -4.67181 45.1541 -4.32153 8.64852 -0.14359 -0.227387 0.290566 -0.948171 41.8932 -81.3538 -40.5472 87.8544 -3.85056 -14.0916 11.9784 18.8609 -0.821914 -5.48129 -62.1732 -10.444 58.1405 -1.42624 38.0911 0.129439 6.25815 3.5678 -0.803483 -18.5514 -41.4057 -1.88236 -48.7677 -4.61197 95.8931 -0.950975 31.3092 13.5758 -6.70323 -5.29891 1.05293 -2.30265 -12.1 2.5047 
22.824 103.495 25.8938 72.9299 -12.385 -3.36504 -70.1915 0 88.8779 94.0652 72.3326 -6.5043 0.814241 21.7321 3.2461 -132.512 9.57815 -173.988 -140.792 40.7829 165.83 2.61237 -3.24404 -36.0781 -105.004 44.2747 -94.9566 -8.9022 41.9824 4.15524 12.3858 0.0697496 2.26313 0.284064 -0.92984 41.1521 -75.471 -40.7628 92.2546 -4.40449 -6.66238 13.6659 22.2466 -0.572168 -3.35861 -56.8533 -10.5942 58.7161 -2.21394 45.7445 -1.6569 5.11897 3.91456 -0.622077 -17.9794 -39.887 -2.44727 -48.4249 -4.07961 92.8449 -1.63367 32.5877 12.1413 -7.51873 -6.4532 1.12182 -1.79887 -8.58816 3.64467 
